# Blender v2.80 (sub 75) OBJ File: 'ikea_warehouse_rack.blend'
# www.blender.org
o Cube
v 0.500000 7.499000 -1.500000
v 0.500000 0.499000 -1.500000
v 0.500000 7.499000 0.500000
v 0.500000 0.499000 0.500000
v -3.500000 7.499000 -1.500000
v -3.500000 0.499000 -1.500000
v -3.500000 7.499000 0.500000
v -3.500000 0.499000 0.500000
v -3.375000 0.499000 -1.500000
v -3.375000 1.499000 0.500000
v -3.375000 0.499000 0.500000
v -3.375000 1.499000 -1.500000
v 0.375000 0.499000 0.500000
v 0.375000 1.499000 -1.500000
v 0.375000 0.499000 -1.500000
v 0.375000 7.499000 0.500000
v -3.500000 0.499000 0.375000
v 0.500000 1.499000 0.375000
v -3.500000 1.499000 0.375000
v 0.500000 0.499000 0.375000
v -3.500000 1.499000 -1.375000
v 0.500000 0.499000 -1.375000
v -3.500000 0.499000 -1.375000
v 0.500000 7.499000 -1.375000
v 0.375000 1.249000 0.500000
v -3.375000 1.249000 0.500000
v 0.500000 1.249000 -1.375000
v 0.500000 1.249000 0.375000
v -3.500000 1.249000 0.375000
v -3.500000 1.249000 -1.375000
v -3.375000 1.249000 -1.500000
v 0.375000 1.249000 -1.500000
v 0.500000 1.499000 -1.375000
v 0.375000 1.499000 0.500000
v -3.375000 7.499000 0.500000
v 0.375000 7.499000 -1.500000
v -3.500000 7.499000 0.375000
v -3.375000 7.499000 -1.500000
v 0.500000 7.499000 0.375000
v -3.500000 7.499000 -1.375000
v 0.500000 2.499000 -1.375000
v -3.500000 2.374000 -1.375000
v -3.500000 2.374000 0.375000
v 0.500000 2.374000 0.375000
v 0.500000 2.374000 -1.375000
v -3.500000 2.499000 -1.375000
v -3.500000 2.499000 0.375000
v 0.500000 2.499000 0.375000
v -3.375000 2.374000 0.500000
v 0.375000 2.374000 0.500000
v -3.375000 2.499000 0.500000
v 0.375000 2.499000 0.500000
v -3.375000 4.374000 0.500000
v 0.375000 4.374000 0.500000
v -3.375000 4.499000 0.500000
v 0.375000 4.499000 0.500000
v -3.375000 5.374000 0.500000
v 0.375000 5.374000 0.500000
v -3.375000 5.499000 0.500000
v 0.375000 5.499000 0.500000
v -3.375000 6.374000 0.500000
v 0.375000 6.374000 0.500000
v -3.375000 6.499000 0.500000
v 0.375000 6.499000 0.500000
v -3.375000 7.374000 0.500000
v 0.375000 7.374000 0.500000
v -3.375000 7.499000 0.500000
v 0.375000 7.499000 0.500000
v -3.375000 2.374000 -1.500000
v 0.375000 2.374000 -1.500000
v -3.375000 2.499000 -1.500000
v 0.375000 2.499000 -1.500000
v -3.375000 4.374000 -1.500000
v 0.375000 4.374000 -1.500000
v -3.375000 4.499000 -1.500000
v 0.375000 4.499000 -1.500000
v -3.375000 5.374000 -1.500000
v 0.375000 5.374000 -1.500000
v -3.375000 5.499000 -1.500000
v 0.375000 5.499000 -1.500000
v -3.375000 6.374000 -1.500000
v 0.375000 6.374000 -1.500000
v -3.375000 6.499000 -1.500000
v 0.375000 6.499000 -1.500000
v -3.375000 7.374000 -1.500000
v 0.375000 7.374000 -1.500000
v -3.375000 7.499000 -1.500000
v 0.375000 7.499000 -1.500000
v 0.500000 4.499000 -1.375000
v -3.500000 4.374000 -1.375000
v -3.500000 4.374000 0.375000
v 0.500000 4.374000 0.375000
v 0.500000 4.374000 -1.375000
v -3.500000 4.499000 -1.375000
v -3.500000 4.499000 0.375000
v 0.500000 4.499000 0.375000
v 0.500000 5.499000 -1.375000
v -3.500000 5.374000 -1.375000
v -3.500000 5.374000 0.375000
v 0.500000 5.374000 0.375000
v 0.500000 5.374000 -1.375000
v -3.500000 5.499000 -1.375000
v -3.500000 5.499000 0.375000
v 0.500000 5.499000 0.375000
v 0.500000 6.499000 -1.375000
v -3.500000 6.374000 -1.375000
v -3.500000 6.374000 0.375000
v 0.500000 6.374000 0.375000
v 0.500000 6.374000 -1.375000
v -3.500000 6.499000 -1.375000
v -3.500000 6.499000 0.375000
v 0.500000 6.499000 0.375000
v 0.500000 7.499000 -1.375000
v -3.500000 7.374000 -1.375000
v -3.500000 7.374000 0.375000
v 0.500000 7.374000 0.375000
v 0.500000 7.374000 -1.375000
v -3.500000 7.499000 -1.375000
v -3.500000 7.499000 0.375000
v 0.500000 7.499000 0.375000
v -3.500000 1.499000 0.500000
v 0.500000 1.499000 0.500000
v -3.500000 1.499000 -1.500000
v 0.500000 1.499000 -1.500000
v -3.500000 2.499000 0.500000
v 0.500000 2.499000 0.500000
v -3.500000 2.499000 -1.500000
v 0.500000 2.499000 -1.500000
v -3.500000 4.499000 0.500000
v 0.500000 4.499000 0.500000
v -3.500000 4.499000 -1.500000
v 0.500000 4.499000 -1.500000
v -3.500000 5.499000 0.500000
v 0.500000 5.499000 0.500000
v -3.500000 5.499000 -1.500000
v 0.500000 5.499000 -1.500000
v -3.500000 6.499000 0.500000
v 0.500000 6.499000 0.500000
v -3.500000 6.499000 -1.500000
v 0.500000 6.499000 -1.500000
v -3.500000 7.499000 0.500000
v 0.500000 7.499000 0.500000
v -3.500000 7.499000 -1.500000
v 0.500000 7.499000 -1.500000
v -3.375000 0.561500 0.500000
v -3.375000 0.561500 -1.500000
v 0.375000 0.561500 -1.500000
v 0.500000 0.561500 0.375000
v -3.500000 0.561500 0.375000
v -3.500000 0.561500 -1.375000
v 0.375000 0.499000 0.500000
v -3.375000 0.499000 0.500000
v 0.500000 0.499000 -1.375000
v 0.500000 0.499000 0.375000
v -3.500000 0.499000 0.375000
v -3.500000 0.499000 -1.375000
v -3.375000 0.499000 -1.500000
v 0.375000 0.499000 -1.500000
v 0.500000 0.561500 -1.375000
v 0.375000 0.561500 0.500000
v -3.500000 0.561500 0.500000
v 0.500000 0.561500 0.500000
v -3.500000 0.561500 -1.500000
v 0.500000 0.561500 -1.500000
vt 0.673469 -0.000000
vt 0.673469 1.750000
vt 0.653061 1.750000
vt 0.653061 -0.000000
vt 0.673469 -0.000000
vt 0.673469 1.750000
vt 0.653061 1.750000
vt 0.653061 -0.000000
vt 0.673469 -0.000000
vt 0.673469 1.750000
vt 0.653061 1.750000
vt 0.653061 -0.000000
vt 0.673469 -0.000000
vt 0.673469 1.750000
vt 0.653061 1.750000
vt 0.653061 -0.000000
vt 0.673469 -0.000000
vt 0.673469 1.750000
vt 0.653061 1.750000
vt 0.653061 -0.000000
vt 0.959184 0.937500
vt 0.918367 0.937500
vt 0.918367 0.000000
vt 0.959184 0.000000
vt 0.673469 -0.000000
vt 0.673469 1.750000
vt 0.653061 1.750000
vt 0.653061 -0.000000
vt 0.979592 0.375000
vt 0.959184 0.375000
vt 0.959184 0.000000
vt 0.979592 0.000000
vt 0.673469 -0.000000
vt 0.673469 1.750000
vt 0.653061 1.750000
vt 0.653061 -0.000000
vt 0.959184 0.937500
vt 0.918367 0.937500
vt 0.918367 0.000000
vt 0.959184 0.000000
vt 0.673469 -0.000000
vt 0.673469 1.750000
vt 0.653061 1.750000
vt 0.653061 -0.000000
vt 0.979592 0.375000
vt 0.959184 0.375000
vt 0.959184 0.000000
vt 0.979592 0.000000
vt 0.918367 0.375000
vt 0.877551 0.375000
vt 0.877551 0.000000
vt 0.918367 0.000000
vt 0.918367 0.375000
vt 0.877551 0.375000
vt 0.877551 0.000000
vt 0.918367 0.000000
vt 0.979592 0.937500
vt 0.979592 0.000000
vt 1.000000 0.000000
vt 1.000000 0.937500
vt 0.979592 0.937500
vt 0.979592 0.000000
vt 1.000000 0.000000
vt 1.000000 0.937500
vt 0.979592 0.937500
vt 0.979592 0.000000
vt 1.000000 0.000000
vt 1.000000 0.937500
vt 0.979592 0.937500
vt 0.979592 0.000000
vt 1.000000 0.000000
vt 1.000000 0.937500
vt 0.979592 0.937500
vt 0.979592 0.000000
vt 1.000000 0.000000
vt 1.000000 0.937500
vt 0.979592 0.000000
vt 1.000000 0.000000
vt 1.000000 0.937500
vt 0.979592 0.937500
vt 0.979592 0.000000
vt 1.000000 0.000000
vt 1.000000 0.937500
vt 0.979592 0.937500
vt 0.979592 0.000000
vt 1.000000 0.000000
vt 1.000000 0.937500
vt 0.979592 0.937500
vt 0.979592 0.000000
vt 1.000000 0.000000
vt 1.000000 0.937500
vt 0.979592 0.937500
vt 0.979592 0.000000
vt 1.000000 0.000000
vt 1.000000 0.937500
vt 0.979592 0.937500
vt 0.979592 0.375000
vt 0.959184 0.375000
vt 0.959184 0.000000
vt 0.979592 0.000000
vt 0.979592 0.375000
vt 0.959184 0.375000
vt 0.959184 0.000000
vt 0.979592 0.000000
vt 0.979592 0.375000
vt 0.959184 0.375000
vt 0.959184 0.000000
vt 0.979592 0.000000
vt 0.979592 0.375000
vt 0.959184 0.375000
vt 0.959184 0.000000
vt 0.979592 0.000000
vt 0.979592 0.375000
vt 0.959184 0.375000
vt 0.959184 0.000000
vt 0.979592 0.000000
vt 0.979592 0.375000
vt 0.959184 0.375000
vt 0.959184 0.000000
vt 0.979592 0.000000
vt 0.979592 0.375000
vt 0.959184 0.375000
vt 0.959184 0.000000
vt 0.979592 0.000000
vt 0.979592 0.375000
vt 0.959184 0.375000
vt 0.959184 0.000000
vt 0.979592 0.000000
vt 0.000000 0.000000
vt 0.653061 0.000000
vt 0.653061 0.500000
vt 0.000000 0.500000
vt 0.000000 0.500000
vt 0.653061 0.500000
vt 0.653061 1.000000
vt 0.000000 1.000000
vt 0.000000 0.500000
vt 0.653061 0.500000
vt 0.653061 1.000000
vt 0.000000 1.000000
vt 0.000000 0.500000
vt 0.653061 0.500000
vt 0.653061 1.000000
vt 0.000000 1.000000
vt 0.000000 0.500000
vt 0.653061 0.500000
vt 0.653061 1.000000
vt 0.000000 1.000000
vt 0.000000 0.500000
vt 0.653061 0.500000
vt 0.653061 1.000000
vt 0.000000 1.000000
vt 0.877551 0.937500
vt 0.867347 0.937500
vt 0.867347 0.000000
vt 0.877551 0.000000
vt 0.877551 0.937500
vt 0.867347 0.937500
vt 0.867347 0.000000
vt 0.877551 0.000000
vt 0.867347 0.375000
vt 0.857143 0.375000
vt 0.857143 0.000000
vt 0.867347 0.000000
vt 0.867347 0.375000
vt 0.857143 0.375000
vt 0.857143 0.000000
vt 0.867347 0.000000
vt 0.000000 0.500000
vt 0.653061 0.500000
vt 0.653061 1.000000
vt 0.000000 1.000000
vn 0.0000 0.0000 1.0000
vn -1.0000 0.0000 0.0000
vn 1.0000 0.0000 0.0000
vn 0.0000 0.0000 -1.0000
vn 0.0000 1.0000 0.0000
g Cube_Cube_Material
s off
f 11/1/1 35/2/1 7/3/1 8/4/1
f 23/5/2 40/6/2 5/7/2 6/8/2
f 20/9/3 39/10/3 3/11/3 4/12/3
f 15/13/4 36/14/4 1/15/4 2/16/4
f 6/17/4 5/18/4 38/19/4 9/20/4
f 14/21/4 32/22/4 31/23/4 12/24/4
f 4/25/1 3/26/1 16/27/1 13/28/1
f 46/29/2 42/30/2 43/31/2 47/32/2
f 8/33/2 7/34/2 37/35/2 17/36/2
f 10/37/1 26/38/1 25/39/1 34/40/1
f 2/41/3 1/42/3 24/43/3 22/44/3
f 48/45/3 44/46/3 45/47/3 41/48/3
f 18/49/3 28/50/3 27/51/3 33/52/3
f 21/53/2 30/54/2 29/55/2 19/56/2
f 49/57/1 50/58/1 52/59/1 51/60/1
f 53/61/1 54/62/1 56/63/1 55/64/1
f 57/65/1 58/66/1 60/67/1 59/68/1
f 61/69/1 62/70/1 64/71/1 63/72/1
f 65/73/1 66/74/1 68/75/1 67/76/1
f 69/77/4 71/78/4 72/79/4 70/80/4
f 73/81/4 75/82/4 76/83/4 74/84/4
f 77/85/4 79/86/4 80/87/4 78/88/4
f 81/89/4 83/90/4 84/91/4 82/92/4
f 85/93/4 87/94/4 88/95/4 86/96/4
f 94/97/2 90/98/2 91/99/2 95/100/2
f 96/101/3 92/102/3 93/103/3 89/104/3
f 102/105/2 98/106/2 99/107/2 103/108/2
f 104/109/3 100/110/3 101/111/3 97/112/3
f 110/113/2 106/114/2 107/115/2 111/116/2
f 112/117/3 108/118/3 109/119/3 105/120/3
f 118/121/2 114/122/2 115/123/2 119/124/2
f 120/125/3 116/126/3 117/127/3 113/128/3
f 121/129/5 122/130/5 124/131/5 123/132/5
f 125/133/5 126/134/5 128/135/5 127/136/5
f 129/137/5 130/138/5 132/139/5 131/140/5
f 133/141/5 134/142/5 136/143/5 135/144/5
f 137/145/5 138/146/5 140/147/5 139/148/5
f 141/149/5 142/150/5 144/151/5 143/152/5
f 147/153/4 158/154/4 157/155/4 146/156/4
f 145/157/1 152/158/1 151/159/1 160/160/1
f 148/161/3 154/162/3 153/163/3 159/164/3
f 150/165/2 156/166/2 155/167/2 149/168/2
f 161/169/5 162/170/5 164/171/5 163/172/5
